<?xml version="1.0" standalone="no"?>
<!DOCTYPE svg PUBLIC "-//W3C//DTD SVG 20010904//EN"
 "http://www.w3.org/TR/2001/REC-SVG-20010904/DTD/svg10.dtd">
<svg version="1.0" xmlns="http://www.w3.org/2000/svg"
 width="591.000000pt" height="591.000000pt" viewBox="0 0 591.000000 591.000000"
 preserveAspectRatio="xMidYMid meet">
<metadata>
Created by potrace 1.14, written by Peter Selinger 2001-2017
</metadata>
<g transform="translate(0.000000,591.000000) scale(0.100000,-0.100000)"
fill="#000000" stroke="none">
<path d="M1597 5734 c-1 -1 -31 -5 -67 -8 -80 -8 -134 -33 -138 -64 -5 -31 23
-111 68 -203 98 -196 242 -371 409 -496 163 -123 415 -221 637 -247 124 -14
215 -64 266 -147 23 -36 37 -49 55 -49 37 0 43 32 29 157 -8 76 -46 232 -72
292 -107 251 -222 398 -430 549 -150 109 -355 188 -539 208 -61 6 -213 12
-218 8z"/>
<path d="M3543 5154 c-41 -20 -185 -137 -253 -205 -108 -108 -234 -284 -292
-409 -33 -71 -88 -232 -81 -240 7 -8 127 -7 151 1 12 5 22 14 22 22 0 24 71
161 118 227 116 163 288 309 444 378 71 31 81 68 39 151 -38 74 -93 101 -148
75z"/>
<path d="M1896 4473 c-3 -3 -22 -7 -43 -10 -69 -8 -73 -9 -79 -16 -4 -4 -17
-7 -29 -7 -12 0 -25 -3 -29 -7 -4 -5 -11 -8 -14 -9 -41 -7 -72 -18 -72 -27 0
-6 -3 -8 -6 -4 -4 3 -21 -1 -38 -10 -17 -10 -33 -18 -36 -18 -21 -4 -160 -92
-172 -109 -5 -7 -8 -7 -8 -1 0 7 -3 7 -8 0 -4 -6 -25 -23 -47 -40 -74 -54
-283 -275 -261 -275 3 0 -2 -9 -12 -19 -37 -42 -102 -142 -102 -159 0 -5 -3
-12 -7 -14 -12 -5 -82 -155 -76 -162 3 -3 15 0 27 6 11 6 22 10 24 9 2 -2 64
10 132 25 14 3 34 7 45 9 11 2 36 6 55 10 19 4 50 9 68 11 17 2 49 6 70 9 39
6 53 7 167 21 89 10 526 11 585 1 84 -15 95 -17 117 -21 11 -3 43 -8 70 -12
26 -4 58 -11 71 -15 13 -5 37 -11 55 -14 18 -4 57 -13 87 -22 30 -9 61 -16 68
-16 6 0 12 -4 12 -9 0 -5 5 -6 10 -3 6 3 16 3 23 -2 6 -4 17 -8 22 -10 6 -1
21 -4 35 -8 137 -32 220 -42 332 -39 68 1 137 5 153 8 63 13 81 17 110 22 32
5 130 32 155 41 8 3 22 7 30 8 18 3 52 11 155 35 28 7 59 14 70 16 11 1 30 5
41 8 138 30 251 40 469 40 171 0 239 -3 400 -20 76 -8 350 -54 441 -74 l82
-18 -8 27 c-4 15 -22 56 -40 91 -18 36 -41 82 -51 102 -11 20 -23 39 -29 43
-5 3 -17 21 -26 40 -9 19 -20 35 -25 35 -5 0 -9 5 -9 11 0 6 -6 16 -12 23 -7
7 -22 25 -33 41 -34 47 -190 205 -203 205 -7 0 -12 4 -12 8 0 16 -199 149
-234 155 -6 1 -13 5 -16 8 -7 8 -137 58 -163 63 -12 3 -24 6 -27 7 -3 1 -9 3
-15 4 -5 1 -23 4 -40 8 -16 4 -43 9 -60 13 -39 8 -297 13 -310 5 -5 -3 -21 -6
-35 -7 -14 -1 -26 -3 -27 -4 -2 -1 -6 -3 -10 -4 -5 -1 -14 -5 -20 -9 -7 -5
-13 -6 -13 -3 0 8 -127 -40 -187 -72 -29 -15 -53 -30 -53 -34 0 -5 -7 -8 -15
-8 -8 0 -15 -4 -15 -10 0 -5 -7 -10 -15 -10 -8 0 -15 -5 -15 -12 0 -6 -3 -9
-6 -6 -3 4 -14 -1 -24 -10 -37 -33 -50 -42 -75 -52 -14 -5 -25 -14 -25 -20 0
-5 -7 -10 -15 -10 -9 0 -26 -6 -38 -14 -74 -48 -322 -57 -374 -14 -7 6 -13 7
-13 4 0 -4 -13 2 -30 14 -16 12 -30 18 -30 15 0 -4 -15 5 -32 19 -18 15 -38
30 -44 35 -5 4 -20 13 -31 20 -12 6 -28 17 -35 23 -18 17 -46 35 -78 50 -14 7
-27 15 -30 18 -9 9 -85 44 -92 42 -5 -1 -8 2 -8 8 0 6 -3 9 -7 8 -5 -1 -33 5
-63 14 -30 10 -68 20 -85 23 -35 8 -282 14 -289 8z"/>
<path d="M1495 3519 c-33 -4 -91 -10 -130 -14 -69 -6 -116 -12 -165 -21 -14
-2 -43 -7 -65 -9 -110 -15 -210 -36 -231 -50 -21 -14 -24 -23 -24 -78 0 -97
10 -109 110 -130 103 -22 138 -41 167 -92 24 -42 32 -87 34 -189 4 -150 67
-298 176 -416 312 -337 889 -263 1131 145 38 65 102 223 102 253 0 22 51 143
69 164 73 87 301 123 441 69 103 -39 145 -96 190 -255 89 -320 331 -544 630
-583 66 -9 169 -8 230 1 137 19 293 105 389 212 52 59 126 195 135 249 3 17
10 44 14 60 5 17 10 66 11 110 3 107 6 127 25 162 30 60 95 97 188 108 78 10
101 46 95 143 -4 68 -17 75 -197 106 -69 12 -226 34 -290 40 -176 18 -240 21
-435 20 -226 -1 -337 -13 -525 -55 -25 -6 -56 -13 -70 -15 -14 -3 -92 -23
-175 -44 -82 -21 -172 -42 -200 -46 -27 -3 -59 -8 -70 -10 -69 -13 -260 -5
-370 17 -27 5 -59 11 -70 13 -11 2 -47 11 -80 20 -33 9 -67 19 -75 21 -8 2
-31 9 -50 14 -51 16 -250 60 -295 66 -22 3 -56 8 -75 11 -52 9 -476 12 -545 3z"/>
<path d="M739 3053 c-3 -115 -1 -299 6 -378 10 -129 11 -135 19 -183 4 -23 9
-52 10 -65 5 -35 56 -280 63 -297 3 -8 8 -24 10 -35 6 -26 9 -37 15 -55 3 -8
14 -42 23 -75 10 -33 22 -71 28 -85 6 -14 11 -30 13 -37 3 -16 65 -176 72
-188 4 -5 7 -14 8 -20 5 -32 155 -335 165 -335 5 0 8 -3 7 -7 -3 -10 73 -141
128 -221 24 -35 44 -67 44 -72 0 -6 4 -10 8 -10 4 0 15 -12 25 -28 9 -15 29
-41 44 -59 15 -17 43 -51 62 -75 40 -49 269 -278 280 -278 3 0 20 -12 37 -27
17 -16 40 -33 50 -39 29 -18 15 -23 -72 -29 -124 -7 -235 -15 -279 -20 -22 -3
-60 -7 -85 -10 -25 -2 -67 -7 -95 -10 -27 -3 -63 -8 -80 -11 -16 -3 -37 -6
-45 -8 -68 -11 -106 -39 -94 -70 6 -16 65 -43 109 -51 17 -3 41 -7 54 -10 13
-2 49 -7 80 -10 31 -4 74 -9 96 -11 22 -3 63 -7 90 -9 28 -2 73 -7 100 -10 28
-3 95 -7 150 -11 55 -3 120 -7 145 -9 190 -15 401 -20 985 -20 581 0 778 4
1028 20 29 2 102 6 162 10 61 4 126 8 145 10 19 1 71 6 115 10 103 8 278 33
333 47 60 15 95 44 82 68 -23 43 -199 73 -555 95 -124 7 -219 16 -222 19 -2 1
36 32 84 69 140 105 294 262 415 422 58 77 207 300 215 323 4 9 10 19 14 22
12 8 169 337 169 354 0 8 4 17 9 21 5 3 13 20 16 38 4 17 14 44 21 59 8 15 16
35 17 45 2 10 7 25 10 33 10 24 38 111 42 129 2 9 8 28 14 44 6 15 9 27 6 27
-2 0 5 25 15 55 10 30 17 55 15 55 -3 0 0 11 5 24 15 41 58 257 65 325 3 35 7
67 9 70 16 26 29 498 14 507 -6 4 -122 -26 -168 -43 -8 -3 -23 -8 -33 -9 -50
-10 -87 -34 -88 -56 -1 -44 -8 -117 -14 -155 -4 -21 -8 -47 -10 -58 -7 -41
-46 -141 -81 -204 -75 -137 -180 -245 -308 -316 -54 -30 -162 -72 -203 -79
-15 -3 -48 -8 -73 -12 -67 -11 -259 -11 -305 -1 -123 28 -161 40 -215 66 -33
17 -60 28 -60 25 0 -3 -10 4 -22 16 -12 11 -27 20 -34 20 -7 0 -14 3 -16 8 -5
12 -76 62 -87 62 -6 0 -11 6 -12 13 0 6 -20 28 -44 47 -24 19 -44 39 -44 44
-1 7 -63 89 -81 106 -3 3 -6 12 -8 20 -2 8 -10 22 -18 31 -8 8 -14 20 -14 26
0 5 -11 31 -25 57 -13 25 -24 49 -24 51 1 20 -65 204 -72 199 -5 -3 -9 0 -9 6
0 38 -95 75 -172 67 -83 -9 -133 -49 -162 -130 -16 -46 -47 -146 -50 -162 -5
-23 -90 -185 -97 -185 -5 0 -9 -6 -9 -12 -1 -28 -132 -164 -215 -224 -54 -38
-245 -131 -245 -118 0 2 -12 -1 -26 -7 -15 -5 -43 -12 -63 -15 -20 -3 -54 -9
-76 -13 -71 -12 -223 -5 -315 15 -14 3 -36 7 -49 10 -59 12 -190 78 -261 132
-19 15 -38 26 -42 24 -5 -1 -8 3 -8 9 0 6 -15 25 -33 42 -65 64 -115 134 -156
219 -22 48 -41 94 -41 102 0 8 -5 18 -10 21 -6 4 -8 11 -5 16 4 5 3 14 -1 21
-4 7 -9 24 -11 38 -2 14 -5 34 -7 45 -3 11 -5 45 -5 75 -1 30 -5 61 -10 68 -4
8 -50 28 -102 47 -52 18 -101 35 -109 38 -8 3 -27 8 -42 11 -27 6 -28 4 -29
-31z"/>
</g>
</svg>
